Simulation
nRows=34
nColumns=15
endheader
time  TH_x TH_y TH_z SC_y  SC_z  SC_x  AC_y  AC_z  AC_x  GH_y  GH_z  GH_yy  EL_x  PS_y
2.6910411985018725  0.000000  0.000000  0.000000  -23.49085807204639  5.016204964534094  -5.149049487582713  56.2960765337419  10.471958239991702  6.849340448199896  -11.303549693881601  2.9632488128242866  40.61867382728316  15.879370216807983  120.000000
2.7312059925093632  0.000000  0.000000  0.000000  -23.487847443790727  5.105639089493871  -4.976863032688632  56.78623300450414  10.888246272411669  7.199230412422017  -23.575193620525194  0.7854611408075862  55.39011306030983  16.63018647330193  120.000000
2.771370786516854  0.000000  0.000000  0.000000  -23.616470995850197  5.2192586070160845  -4.777766457646118  57.192626214320086  11.255455230234984  7.486258543563584  -174.88466810651133  1.3728213491532038  -151.00211962654683  17.296895611297977  120.000000
2.8115355805243447  0.000000  0.000000  0.000000  -23.831903500095677  5.3468607984277865  -4.58098146977393  57.515266100287334  11.561320277064965  7.709892006807959  -179.4232082724302  3.3618443582829074  -144.36510255113873  17.85337871590594  120.000000
2.851700374531835  0.000000  0.000000  0.000000  -24.09650437830618  5.480702287725021  -4.400809140219504  57.75908871747351  11.806392230036282  7.875049506940979  -179.28165075204214  5.255360347743366  -142.60109084094208  18.283622241085798  120.000000
2.8918651685393257  0.000000  0.000000  0.000000  -24.382094696930523  5.6142818185172105  -4.240108080266259  57.933070785376366  12.000468654967474  7.992221498971909  -178.21350473412846  7.033918744246695  -141.94938094994842  18.583369424157173  120.000000
2.9320299625468165  0.000000  0.000000  0.000000  -24.67012934559719  5.74245478444428  -4.095616452339771  58.046132334301625  12.155532061294837  8.075967719619358  -176.82129025017127  8.684236978585878  -141.80213473368104  18.758752301107574  120.000000
2.972194756554307  0.000000  0.000000  0.000000  -24.948359794130518  5.863660592975625  -3.9629353759389825  58.10563078484937  12.282532188885664  8.137734018817046  -175.2963165561318  10.195658037721797  -141.96344648470114  18.82348658069696  120.000000
3.012359550561798  0.000000  0.000000  0.000000  -25.209170400095626  5.980693021130882  -3.8402403764682456  58.11842134317916  12.390770079592746  8.182507210756418  -173.72830488484104  11.561494144950224  -142.33771959895816  18.796854069210614  120.000000
3.0525243445692882  0.000000  0.000000  0.000000  -25.44792006778313  6.096740427794096  -3.7288743135093396  58.09113291664237  12.485377906684514  8.213575754379779  -172.17794193670818  12.779900218025286  -142.85705133622105  18.701750783163483  120.000000
3.092689138576779  0.000000  0.000000  0.000000  -25.66098257802063  6.211711322621453  -3.632064918046642  58.02940009296031  12.567536141384716  8.23459726350918  -170.68760901139976  13.852345173559428  -143.4708035994201  18.562596433006085  120.000000
3.1328539325842697  0.000000  0.000000  0.000000  -25.845633188692197  6.324427632345298  -3.5534491718354544  57.939378541914024  12.636105881450257  8.248604763138438  -169.29251697854917  14.781313761192857  -144.13501546660316  18.401603405555456  120.000000
3.1730187265917604  0.000000  0.000000  0.000000  -25.999772059401156  6.433771606221087  -3.496534696559661  57.82718653313358  12.689337232073091  8.25823007451225  -168.02008240445696  15.568963074492626  -144.81319371789738  18.236572368689433  120.000000
3.2131835205992507  0.000000  0.000000  0.000000  -26.12189452870279  6.538494845729433  -3.4643635271613915  57.69840133647  12.725629928287324  8.265729518875288  -166.8907819172027  16.21668515596304  -145.47557487200189  18.07912735533462  120.000000
3.2533483146067415  0.000000  0.000000  0.000000  -26.211026211604725  6.637469801686713  -3.4593259142306083  57.55794353386188  12.743678561767329  8.2733974290413  -165.91944970007765  16.72510863917476  -146.09788893045973  17.934933245013656  120.000000
3.293513108614232  0.000000  0.000000  0.000000  -26.266521535866886  6.729666141426186  -3.483238134410544  57.41037403065205  12.742654691374812  8.283153456480548  -165.11747918947688  17.09404094557613  -146.65950207301046  17.80506365980052  120.000000
3.333677902621723  0.000000  0.000000  0.000000  -26.28818546180831  6.814244675362636  -3.5372917240320887  57.259677119931766  12.722136042239441  8.296762797138117  -164.49190087984715  17.32270440639623  -147.1443176167919  17.687667820707237  120.000000
3.3738426966292137  0.000000  0.000000  0.000000  -26.276392323543988  6.890593927432698  -3.62207490159949  57.10911249468576  12.682182866139119  8.315594524393003  -164.04637490492738  17.409856522888237  -147.54001718831202  17.579832169163723  120.000000
3.414007490636704  0.000000  0.000000  0.000000  -26.232113568379408  6.95833186788257  -3.7374973281671764  56.961134060255084  12.623377017372064  8.340806121036145  -163.78114242819922  17.35390875384765  -147.8380896894208  17.478899402370665  120.000000
3.4541722846441947  0.000000  0.000000  0.000000  -26.156846450179298  7.017290714199194  -3.8827363923380074  56.81736225447285  12.546886244316202  8.37316773526986  -163.69424564024968  17.152969259799132  -148.0328799394105  17.383251415241048  120.000000
3.4943370786516854  0.000000  0.000000  0.000000  -26.052635755286527  7.067630359194753  -4.056270108848595  56.67873813142438  12.45442071675353  8.413232951258685  -163.7822869922843  16.804875840500127  -148.1208744745664  17.292329031911006  120.000000
3.534501872659176  0.000000  0.000000  0.000000  -25.921708183467047  7.10968795705097  -4.255756931999678  56.54599716577047  12.348346963463365  8.460926491683255  -164.04303137546157  16.30704706773463  -148.09838117375187  17.206055976760144  120.000000
3.574666666666667  0.000000  0.000000  0.000000  -25.766560319319503  7.144013323587808  -4.477630201726727  56.419242742686315  12.231658427792262  8.516041715421416  -164.47490017027624  15.65657052806123  -147.96192606907223  17.123739908392025  120.000000
3.614831460674157  0.000000  0.000000  0.000000  -25.590169537867848  7.171263078421064  -4.717897821985155  56.29709877695033  12.108085140656915  8.578525916213959  -165.07474529288075  14.85086949713623  -147.7102698341571  17.04280901970624  120.000000
3.654996254681648  0.000000  0.000000  0.000000  -25.39544294768739  7.191958919455863  -4.973705943893729  56.17733648515825  11.981536000599624  8.647706351141506  -165.83765796453483  13.888682528306687  -147.3442128850062  16.95807805115699  120.000000
3.6951610486891386  0.000000  0.000000  0.000000  -25.18439251803641  7.205619972143794  -5.2445672819328175  56.05766679503443  11.854996451830255  8.722201284442257  -166.75992105514987  12.771135669916879  -146.86338341379826  16.862003719339544  120.000000
3.7353258426966294  0.000000  0.000000  0.000000  -24.95727635523771  7.209518288422858  -5.53314171805699  55.93660243635354  11.729296767463559  8.800611193164288  -167.84697912719645  11.502465118859156  -146.25852989990233  16.745610293737045  120.000000
3.7754906367041197  0.000000  0.000000  0.000000  -24.71164393330331  7.198374129399845  -5.845774638944265  55.81449204157879  11.602430450075195  8.881932923542804  -169.12680222018273  10.09030344470509  -145.49854786269114  16.599961452411296  120.000000
3.8156554307116104  0.000000  0.000000  0.000000  -24.442453909629425  7.164490905492278  -6.191533864192718  55.692611704889444  11.469881796086929  8.965397651081139  -170.6650077264568  8.545310255211488  -144.51527284633443  16.416871556538034  120.000000
3.855820224719101  0.000000  0.000000  0.000000  -24.143447838808573  7.099221049043613  -6.580512671765679  55.57197245610025  11.326717027252268  9.050021851631008  -172.59971793754153  6.879850302221052  -143.1689649672879  16.189105025202508  120.000000
3.895985018726592  0.000000  0.000000  0.000000  -23.8089152359008  6.994830629304478  -7.022247931733945  55.452180738362465  11.16968779902033  9.134572661280519  -175.27350691813362  5.107287761125784  -141.11614794236064  15.910981987927803  120.000000
3.9361498127340826  0.000000  0.000000  0.000000  -23.43504243120821  6.8457767906467675  -7.523944140439749  55.33078059445352  10.998398454112534  9.218270367165474  -179.87814145299902  3.243738016511282  -137.1648709980029  15.579175235191004  120.000000
3.976314606741573  0.000000  0.000000  0.000000  -23.0244651665368  6.6501659131701025  -8.088172740272213  55.20403124444728  10.817446702446432  9.300289516933578  165.04267635852128  1.335930019162572  -122.7736901321566  15.194398169380376  120.000000
4.016479400749064  0.000000  0.000000  0.000000  -22.5919189589039  6.41069592448481  -8.710123619082948  55.06709014984084  10.638202418813258  9.379788037683172  39.53430694886839  0.996325201176889  2.0056476423472973  14.762488804400519  120.000000
